<?xml version="1.0" encoding="UTF-8"?>
<svg xmlns="http://www.w3.org/2000/svg" viewBox="0 0 896 890">
  <defs>
    <style>
      .cls-1 {
        fill: none;
      }

      .cls-2 {
        fill: #f7f7f7;
      }

      .cls-3 {
        fill: #e9d3b0;
      }

      .cls-4 {
        fill: #ffdc54;
      }

      .cls-5 {
        fill: #84abd6;
      }

      .cls-6 {
        fill: #dfdfdf;
      }

      .cls-7 {
        fill: #231f20;
      }

      .cls-8 {
        fill: #a2c255;
      }

      .cls-9 {
        fill: #3b9345;
      }

      .cls-10 {
        fill: #3b7445;
      }
    </style>
  </defs>
  <g id="Layer_3" data-name="Layer 3">
    <g>
      <path class="cls-3" d="M173.7,483.34c2.98,4.69,7.29,11.27,4.92,17.84-2.84,7.88-24.52,14.19-28.35,15.19-44.89,11.68-100.11-177.43-123.42-222.04-1.99-3.81,2.66-15.9,10.97-17.49,6.93-1.33,15.18-2.2,20.97,5.52,6.94,9.26,21.11,59.41,22.22,62.77,13.02,39.26,42.63,112.31,74.03,125.34,2.68,1.11,15.08,7.25,18.66,12.88Z"/>
      <path class="cls-3" d="M511.58,484.9c-40.37,20.11-24.57,18.15-73.67,16.59,3.95-10.91,5.72-20.4,4.58-31.97,18.63,.96,32.9,2.74,47.16-9.78,6.98,8.65,15.41,16.16,21.93,25.16Z"/>
      <path class="cls-5" d="M140.62,527.31c-1.46,.47,0,0,0,0,3.72,4.12,4.06,6.43,14.82,1.59,19.56-8.81,25.38-24.87,29.62-44.77,2.33-10.94,6.08-23.12-.43-26.89,.9-3.14,0,0,0,0-6.52-3.76-14.89,18.16-15.68,28.88-1.43,19.49-9.08,20.61-24.8,27.94-8.65,4.03-7.25,9.14-3.53,13.26Z"/>
      <g>
        <path class="cls-4" d="M346.8,410.31c6.9-.96,8.88,.32,15.04,.09,.13-.39,8.15-.4,5.51-2.64-4.81-4.08-13.88-1.6-21.18-.16-7.3,1.44-19.77,4.02-25.49,10.19,7.59-.26,19.22-6.51,26.12-7.47Z"/>
        <path class="cls-4" d="M448.16,513.84c-24.13-10.65-29.18-43.19-1.93-59.16,8.67-5.08,5.88-5.88,6.32-14.26,.03-.63,.17-1.23-.43-1.6-7.86-4.99-7.07-7.61-17.74-1.95-33.56,17.78-43.42,75.03-2.22,89,13.11,4.44,8.98-5.63,11.97-3.88,.23,.13-.31,.69,.32,.78,8.22,1.17,11.39-5.53,3.72-8.91Z"/>
      </g>
      <path class="cls-4" d="M313.64,427.43c-4.73,8.68,.97,13.73,10.25,10.32,9.28-3.42,14.3-6.45,14.96-13.31,.66-6.86-2.97-10.35-10.05-10-7.08,.35-10.43,4.31-15.16,12.99Z"/>
      <rect class="cls-3" x="134.94" y="213.33" width="319.76" height="483.18" rx="35.15" ry="35.15"/>
      <g>
        <path class="cls-5" d="M412.9,250.9c-94.06,2.7-185.4-.64-280.35-7.78-13.39-1.01-18.7,.8-11.22-21.91,18.99-57.66,68.88-114.51,123.91-146.01,1.41-.81,2.35-1.85,3.61-2.39-12.59,11.15-22.64,22.52-22.2,40.31,.79,32.32,32.38,51.89,63.84,51.81,31.46-.08,63.85-19.34,64.6-51.89,.5-21.64-13.56-34.98-31.34-45.84,10.82,2.12,12.42,2.67,23.65,8.56,39.09,20.48,70.23,59.14,87.63,99.06-21.38,1.16-84.99,8.52-86.01,37.45-.88,25.03,45.44,34.08,63.88,38.63Z"/>
        <path class="cls-5" d="M366.3,130.97c-26.09,29.99-45.47,25.57-77.23,28-31.75,2.43-54.67-6.63-66.66-35.54-6.6-15.91,1.17-26.71,9.84-39.35,0,0-6.49,4.13,3.73-2.63,10.21-6.76,19.25-17.5,44.79-21.22,19.05-2.78,49.53,5.13,69.61,16.29,39.8,22.12,33.27,34.51,15.93,54.45Z"/>
        <path class="cls-5" d="M556.38,215.17c-.5,57.37-282.09,28.38-330.25,29.14-11.29,.18-91.25-24.5-77.14-30.69,46.08-20.19,184.5-39.33,209.28-2.6,28.64,42.45-62.09,26.23-36.96,20.46,3.28-.75,6.96-7.88,10.07-10.83,26.97-25.65,225.49-62.84,224.99-5.47Z"/>
        <path class="cls-5" d="M440.59,205.58c-7.34,43.05-61.07,38.82-97.77,40.44-36.69,1.62-107.91-19.12-102.16-69.25,5.76-50.13,70.58-63.49,112.01-58.19,41.43,5.3,95.25,43.95,87.91,87Z"/>
      </g>
      <g>
        <g>
          <path class="cls-8" d="M325.02,187.79c-.17,.28-.34,.57-.51,.85-2.62,4.28-5.69,8.38-8.52,12.57h27.72v-13.42h-18.69Z"/>
          <path class="cls-8" d="M315.81,173.42l-10.17,15.16c3.38,3.89,5.91,8.28,9.28,12.17l13.97-20.83-13.09-6.5Z"/>
          <polygon class="cls-8" points="330.07 164.89 309.02 171.12 334.26 183.53 330.07 164.89"/>
        </g>
        <g>
          <path class="cls-8" d="M348.45,148.72c-.22-.26-.44-.52-.65-.78-3.28-3.94-6.15-8.14-9.25-12.19l-12.65,21,14.03,6.13,8.53-14.16Z"/>
          <path class="cls-8" d="M368.59,148.07l-11.63-14.38c-5.59,.91-11.32,.94-16.91,1.84l15.98,19.76,12.56-7.22Z"/>
          <polygon class="cls-8" points="370.23 163.92 374.43 145.28 349.18 157.7 370.23 163.92"/>
        </g>
        <g>
          <path class="cls-8" d="M377.39,187.31c.37-.02,.75-.03,1.12-.05,5.67-.21,11.37,.01,17.05,0l-13.86-20.44-13.65,6.71,9.35,13.78Z"/>
          <path class="cls-8" d="M367.38,201.29l20.5-.08c2.27-4.44,5.46-8.49,7.74-12.93l-28.17,.11-.07,12.9Z"/>
          <polygon class="cls-8" points="351.58 195.04 368.44 207.45 368.44 182.63 351.58 195.04"/>
        </g>
      </g>
      <g>
        <path class="cls-3" d="M419.41,802.83c-5.32,.54-11.1-1.84-17.16-1.38-7.26,.56-14.71,.06-17.44-8.88-10.53-34.54-34.99-66.47-45.04-99.08-2.6-8.44,1.52-10.91,7.46-14.23,4.95-2.77,13.21-6.25,18.93-7.47,6.86-1.46,11.08-2.1,14.71,6.78,14.03,34.34,41.59,75.28,44.05,112.29,.64,9.58,.87,11.32-5.51,11.97Z"/>
        <path class="cls-3" d="M228.11,818.32c-5.16,.79-16.56-1.72-22.71-3.14-6.15-1.42-10.85-2.36-9.98-11.69,3.75-39.97,2.71-85.12,6.78-124.69,.95-9.24,5.36-9.75,12.39-9.9,7.03-.14,17,.74,23.92,2.47,6.92,1.73,10.77,3.13,10.2,12.74-2.47,41.16-6.55,89.49-9.6,129.63-.71,9.38-5.84,3.79-11,4.58Z"/>
        <path class="cls-3" d="M547.88,802.32c-3.89,42.87-86.42,69.22-145.48,61.73-59.07-7.5-28.54-79.22-3.77-71.85,24.77,7.37,33.7-11.15,56.24-21.57,22.53-10.41,96.91-11.18,93.02,31.68Z"/>
        <path class="cls-3" d="M312.55,828.49c-14.79,43.9-102.69,43.04-145.74,24.29-43.05-18.76-19.96-79.64,10.57-66.24,30.53,13.4,34.86-2.27,60.42-6.06,25.56-3.79,89.54,4.11,74.75,48.01Z"/>
      </g>
      <g>
        <path class="cls-4" d="M211.02,470.74c-22-5.83-46.37-11.9-67.87-18.59-9.01-2.81-12.87-6.04-11.97-14.69,1.34-12.77-1.18-24.66,.96-37.66,1.44-8.8,1.13-10.85,14.84-9.18,32.72,4,73.3,8.61,104.86,22.26,13.22,5.72-1.23,5.69-7.62,12.99-9.44,10.79-13.78,24.2-18.5,36.58-3.2,8.38-5.47,10.71-14.69,8.27Z"/>
        <path class="cls-4" d="M269.75,695.97c.23-.07,.44-.15,.66-.24-.2,.14-.41,.22-.66,.24Z"/>
        <path class="cls-4" d="M272.8,695.32c-.57,2.6-1.04,3.25-2.03,5.45-.43-1.53-.82-3.09-1.14-4.68-.02-.05-.04-.12-.04-.17,0,0-.02-.03,0-.04-7.29-35.36,10.53-83.59,17.42-121.94,.12-.64,.23-1.28,.33-1.91,.06-.31,.1-.62,.16-.93,.06-.35,.11-.71,.18-1.06,.04-.25,.08-.51,.12-.76,.5-3.12,.9-6.17,1.2-9.13-38.65-18.03-85.24-41.62-127.7-48.25-.33-.05-.67-.11-1-.15-.8-18.05-1.33-36.03-.79-54.09,0-.03,0-.07,0-.09,.08-.18,.15-.36,.22-.54,3-7.04,7.31-8.16,15.16-6.82,2.16,.37,4.45,1.06,6.72,1.8,.47,.15,.93,.29,1.4,.45,13.65,4.38,27.03,9.7,40.26,15.33,.67,.27,1.34,.56,2.01,.84,16.25,6.94,33.97,13.15,50.26,18.79,4.93,1.71,5.55-1.85,9.67,1.76,2.36,2.08,2.79,3.52,3.34,7.29v.02c.08,.56,.16,1.19,.25,1.87,8.76,64.22-2.01,133.79-16,196.94Z"/>
        <path class="cls-4" d="M287.68,489.73c6.46,26.77-24.66,44.76-55.27,25.51-30.61-19.25-57.71-35.61-49.52-71.3,8.19-35.69,48.86-24.88,71.72-26.08,22.86-1.2,26.61,45.1,33.07,71.87Z"/>
        <path class="cls-4" d="M288.99,560.16c-.3,2.96-.71,6-1.2,9.13-.04,.25-.08,.51-.12,.76-.07,.35-.12,.71-.18,1.06-.06,.31-.1,.62-.16,.93-.1,.63-.21,1.26-.33,1.91-6.88,38.36-24.71,86.58-17.42,121.94-.64-.44-1.2-.89-1.71-1.37l-.03-.03c-.55-.53-1.03-1.07-1.46-1.64-.24-.32-.45-.64-.66-.97-.38-.6-.7-1.22-1-1.87-.31-.65-.58-1.34-.84-2.03-.14-.36-.26-.73-.39-1.1-.06-.15-.1-.31-.16-.47-.08-.26-.17-.54-.26-.81-.6-1.9-1.22-3.99-2.08-6.26-.75-2-1.53-3.95-2.35-5.85-.81-1.91-1.66-3.76-2.53-5.58-.86-1.81-1.75-3.57-2.68-5.29-.3-.57-.61-1.14-.93-1.7-.63-1.13-1.27-2.23-1.93-3.32-.66-1.09-1.33-2.16-2-3.21-3.74-5.78-7.88-10.99-12.42-15.72-.83-.86-1.66-1.7-2.52-2.52-6.39-6.2-13.52-11.53-21.45-16.16-1.19-.69-2.39-1.37-3.61-2.03-3.67-1.99-7.5-3.84-11.49-5.58-.58-.25-1.19-.51-1.79-.76-1.19-.5-2.4-.99-3.62-1.48-.61-.24-1.23-.48-1.85-.72-1.86-.72-3.75-1.41-5.67-2.07-.64-.22-1.29-.44-1.94-.66-1.3-.44-2.61-.87-3.93-1.29-1.32-.42-2.66-.84-4.02-1.24-.68-.2-1.35-.4-2.04-.6-4.28-1.24-6.86-2.07-8.35-3.19-.14-.1-.27-.21-.4-.32-.71-.64-1.11-1.38-1.31-2.34-.06-.27-.09-.56-.12-.88-.08-1.04,0-2.31,.14-3.91,.04-.45,.08-.94,.14-1.45,.03-.25,.06-.52,.08-.79,1.15-11.38,1.52-22.81,1.33-34.27-.03-2.04-.08-4.09-.15-6.13-.02-.57-.04-1.15-.07-1.73-.12-3.39-.3-6.78-.53-10.17-.08-1.22-.16-2.43-.24-3.65-.05-.61-.09-1.23-.14-1.84-.11-1.57-.24-3.15-.38-4.72-.04-.39-.08-.78-.1-1.17-.11-1.26-.24-2.52-.35-3.78-.36-3.78-.76-7.55-1.19-11.33,.24,0,.47,.02,.71,.04,42.45,6.63,89.04,30.22,127.7,48.25Z"/>
        <path class="cls-4" d="M256.12,667.9c-.87-1.81-1.76-3.57-2.68-5.29,.93,1.72,1.82,3.48,2.68,5.29Z"/>
        <path class="cls-4" d="M263.08,685.59c-.61-1.91-1.24-4.01-2.1-6.28-.75-1.99-1.53-3.93-2.33-5.83,.82,1.9,1.6,3.85,2.35,5.85,.86,2.27,1.48,4.36,2.08,6.26Z"/>
        <path class="cls-4" d="M287,573.95c-6.62,38.6-21.76,107.41-16.18,121.4-.09,0-.12,.07-.16,.15,0,.03-.02,.05-.04,.08h0c-.04,.07-.08,.12-.17,.11,0,0,0,0,0,0h0s-.05,0-.08,0c-.12-.05-.16,.04-.19,.14,0,0-.02,.02-.02,.03-.06,.16-.1,.35-.45,.13-.05-.03-.09-.06-.13-.09-7.29-35.36,10.53-83.59,17.42-121.94Z"/>
        <path class="cls-4" d="M287.79,569.29c.5-3.12,.9-6.17,1.2-9.13-38.65-18.03-85.24-41.62-127.7-48.25,46.11,2.19,88.02,22.46,128.53,42.07-.28,3.77-1.01,9.02-2.03,15.3Z"/>
        <path class="cls-4" d="M269.63,696.09c-38.91,9.23-95.56-3.25-137.37-.22-7.54-60.3-2.62-120.86-1.73-181.36,9.98-1.97,19.95-2.81,30.04-2.63,.44,3.77,.85,7.54,1.21,11.32,.11,1.26,.24,2.52,.35,3.78,.03,.39,.07,.78,.1,1.17,.13,1.57,.26,3.15,.38,4.72,.05,.62,.09,1.24,.14,1.84,.08,1.22,.17,2.43,.24,3.65,.22,3.4,.39,6.78,.53,10.17,.03,.58,.05,1.16,.07,1.73,.07,2.04,.12,4.09,.15,6.13,.19,11.45-.19,22.89-1.34,34.27-.03,.27-.06,.54-.08,.79-.06,.51-.1,1-.14,1.45-.15,1.6-.23,2.87-.14,3.91,.03,.32,.07,.61,.12,.88,.2,.96,.6,1.71,1.31,2.34,.12,.11,.25,.22,.4,.32,1.5,1.12,4.07,1.94,8.35,3.19,.69,.2,1.36,.4,2.04,.6,1.35,.4,2.7,.82,4.02,1.24,1.33,.43,2.63,.85,3.93,1.29,.65,.23,1.3,.45,1.94,.66,1.92,.67,3.81,1.36,5.67,2.07,.62,.24,1.24,.48,1.85,.72,1.22,.49,2.44,.98,3.62,1.48,.6,.25,1.2,.51,1.79,.76,4,1.73,7.82,3.59,11.49,5.58,1.22,.66,2.43,1.34,3.61,2.03,7.93,4.63,15.07,9.95,21.45,16.16,.86,.83,1.69,1.66,2.52,2.52,4.54,4.73,8.68,9.95,12.42,15.72,.68,1.04,1.34,2.12,2,3.21,.66,1.09,1.3,2.2,1.93,3.32,.32,.56,.63,1.13,.93,1.7,.92,1.72,1.82,3.48,2.68,5.29,.87,1.82,1.72,3.67,2.53,5.58,.8,1.9,1.58,3.84,2.33,5.83,.86,2.27,1.49,4.37,2.1,6.28,.09,.27,.18,.54,.26,.81,.06,.16,.1,.32,.16,.47,.12,.37,.24,.74,.39,1.1,.25,.7,.53,1.38,.84,2.03,.29,.65,.62,1.27,1,1.87,.21,.33,.42,.65,.66,.97,.43,.57,.91,1.12,1.46,1.64l.03,.03c.51,.49,1.08,.96,1.72,1.41,0,.05,.02,.12,.04,.17Z"/>
        <path class="cls-4" d="M253.44,662.62c.93,1.72,1.82,3.48,2.68,5.29-.87-1.81-1.76-3.57-2.68-5.29Z"/>
        <path class="cls-4" d="M261,679.33c.86,2.27,1.48,4.36,2.08,6.26-.61-1.91-1.24-4.01-2.1-6.28-.75-1.99-1.53-3.93-2.33-5.83,.82,1.9,1.6,3.85,2.35,5.85Z"/>
        <path class="cls-4" d="M269.78,696.06s-.1,.03-.15,.04c-.02-.05-.04-.12-.04-.17,.06,.05,.12,.09,.19,.14Z"/>
        <path class="cls-4" d="M270.85,695.42s-.4,.29-.41,.28c0,0,.36-.31,.37-.34,.02-.03,.06,.02,.04,.06Z"/>
      </g>
      <g>
        <path class="cls-6" d="M290.78,630.16c-79.29-2.13-88.81,1.89-158.58-.32,.73-11.65-.43-23.17,.77-34.88,86.65,2.61,102.92-2.7,162,.14-1.01,11.75-3.72,23.28-4.19,35.07Z"/>
        <path class="cls-6" d="M295.74,567.91c-53.92-1.83-107.86,.76-161.8-.25,.6-11.62,.47-23.29,0-34.91,53.98,1.68,108.45,2.26,162.41-.19,.83,11.83,.09,23.53-.62,35.36Z"/>
        <g>
          <path class="cls-4" d="M377.29,472.4c22-5.84,46.36-11.93,67.86-18.64,9.01-2.81,12.87-6.05,11.96-14.69-1.34-12.77,1.16-24.66-.98-37.66-1.45-8.8-1.14-10.85-14.85-9.17-32.72,4.02-73.29,8.66-104.84,22.34-13.22,5.73,1.24,5.69,7.63,12.99,9.45,10.78,13.79,24.19,18.53,36.57,3.21,8.38,5.48,10.71,14.7,8.26Z"/>
          <path class="cls-4" d="M318.72,697.67c-.23-.07-.44-.15-.66-.24,.2,.14,.41,.22,.66,.24Z"/>
          <path class="cls-4" d="M315.68,697.03c.58,2.6,1.05,3.25,2.04,5.45,.43-1.54,.82-3.09,1.13-4.68,.02-.05,.04-.12,.04-.17,0,0,.02-.03,0-.04,7.26-35.36-10.59-83.58-17.5-121.93-.12-.64-.23-1.28-.33-1.91-.06-.31-.1-.62-.16-.93-.06-.35-.11-.71-.18-1.06-.04-.25-.08-.51-.12-.76-.5-3.12-.91-6.17-1.21-9.13,38.64-18.06,85.22-41.68,127.66-48.34,.33-.05,.67-.11,1-.16,.79-18.05,1.3-36.03,.75-54.09,0-.03,0-.07,0-.09-.08-.18-.15-.36-.22-.54-3.01-7.04-7.31-8.15-15.17-6.81-2.16,.37-4.45,1.07-6.72,1.8-.47,.15-.93,.29-1.4,.45-13.64,4.39-27.02,9.72-40.25,15.36-.67,.27-1.34,.56-2.01,.85-16.25,6.95-33.96,13.18-50.25,18.83-4.93,1.71-5.55-1.85-9.67,1.77-2.36,2.08-2.79,3.53-3.33,7.3v.02c-.07,.56-.16,1.19-.25,1.87-8.71,64.23,2.11,133.79,16.14,196.93Z"/>
          <path class="cls-4" d="M300.64,491.44c-6.44,26.77,24.69,44.74,55.29,25.47,30.6-19.27,57.69-35.65,49.47-71.33-8.22-35.68-48.87-24.85-71.73-26.03-22.86-1.18-26.58,45.12-33.02,71.89Z"/>
          <path class="cls-4" d="M299.38,561.87c.3,2.96,.71,6,1.21,9.13,.04,.25,.09,.51,.12,.76,.07,.35,.12,.71,.18,1.06,.06,.31,.1,.62,.16,.93,.1,.63,.21,1.26,.33,1.91,6.91,38.35,24.77,86.57,17.5,121.93,.64-.44,1.2-.89,1.71-1.37l.03-.03c.55-.53,1.02-1.07,1.46-1.64,.23-.32,.45-.65,.66-.97,.38-.6,.7-1.22,1-1.87,.31-.65,.58-1.34,.84-2.04,.14-.36,.26-.73,.38-1.1,.06-.15,.1-.31,.16-.47,.08-.26,.17-.54,.26-.81,.6-1.9,1.22-3.99,2.07-6.26,.75-2,1.53-3.95,2.35-5.85,.81-1.91,1.65-3.76,2.53-5.58,.85-1.81,1.75-3.57,2.68-5.29,.3-.57,.61-1.14,.93-1.7,.63-1.13,1.27-2.24,1.93-3.33,.66-1.09,1.32-2.16,2-3.21,3.74-5.78,7.87-11,12.41-15.73,.83-.86,1.66-1.7,2.52-2.53,6.38-6.21,13.52-11.54,21.44-16.17,1.18-.69,2.39-1.37,3.61-2.04,3.67-1.99,7.49-3.85,11.49-5.58,.58-.25,1.18-.51,1.79-.76,1.18-.5,2.4-.99,3.62-1.48,.61-.24,1.23-.48,1.85-.72,1.86-.72,3.75-1.41,5.67-2.07,.64-.22,1.29-.44,1.94-.66,1.3-.44,2.6-.87,3.93-1.29,1.32-.42,2.66-.84,4.01-1.24,.68-.2,1.35-.4,2.04-.6,4.28-1.25,6.85-2.08,8.35-3.19,.14-.1,.27-.21,.39-.32,.7-.64,1.11-1.38,1.31-2.34,.06-.27,.09-.56,.12-.88,.08-1.04,0-2.31-.14-3.91-.04-.45-.09-.94-.14-1.45-.03-.25-.06-.52-.09-.79-1.16-11.38-1.54-22.81-1.35-34.27,.03-2.04,.08-4.09,.15-6.13,.02-.57,.04-1.15,.06-1.73,.12-3.39,.3-6.78,.52-10.17,.07-1.22,.16-2.43,.24-3.65,.05-.61,.09-1.23,.14-1.84,.11-1.57,.24-3.15,.37-4.72,.04-.39,.07-.78,.1-1.17,.11-1.26,.23-2.52,.35-3.78,.35-3.78,.76-7.55,1.19-11.33-.24,0-.47,.02-.71,.04-42.45,6.66-89.02,30.28-127.66,48.34Z"/>
          <path class="cls-4" d="M332.33,669.59c.86-1.81,1.76-3.57,2.68-5.29-.93,1.72-1.82,3.48-2.68,5.29Z"/>
          <path class="cls-4" d="M325.38,687.28c.61-1.91,1.24-4.01,2.09-6.28,.75-1.99,1.53-3.93,2.33-5.83-.82,1.9-1.6,3.85-2.35,5.85-.85,2.27-1.47,4.36-2.07,6.26Z"/>
          <path class="cls-4" d="M301.39,575.66c6.65,38.6,21.84,107.39,16.26,121.39,.09,0,.12,.07,.16,.15,0,.03,.02,.05,.04,.08h0c.04,.07,.08,.12,.17,.11,0,0,0,0,0,0h0s.05,0,.08,0c.12-.05,.16,.04,.19,.14,0,0,.02,.02,.02,.03,.06,.16,.1,.35,.45,.13,.05-.03,.09-.06,.13-.09,7.26-35.36-10.59-83.58-17.5-121.93Z"/>
          <path class="cls-4" d="M300.6,571c-.5-3.12-.91-6.17-1.21-9.13,38.64-18.06,85.22-41.68,127.66-48.34-46.11,2.22-88,22.52-128.5,42.16,.28,3.77,1.01,9.02,2.04,15.3Z"/>
          <path class="cls-4" d="M318.85,697.8c38.91,9.2,95.56-3.32,137.37-.31,7.5-60.3,2.54-120.86,1.6-181.36-9.98-1.96-19.95-2.79-30.04-2.61-.44,3.77-.84,7.54-1.21,11.32-.11,1.26-.23,2.52-.35,3.78-.03,.39-.07,.78-.1,1.17-.13,1.57-.26,3.15-.37,4.72-.05,.62-.09,1.24-.14,1.84-.08,1.22-.17,2.43-.24,3.65-.21,3.4-.39,6.78-.52,10.17-.03,.58-.05,1.16-.06,1.73-.06,2.04-.12,4.09-.15,6.13-.18,11.45,.2,22.89,1.36,34.27,.03,.27,.06,.54,.08,.79,.06,.51,.1,1,.14,1.45,.15,1.6,.23,2.87,.14,3.91-.03,.32-.07,.61-.12,.88-.2,.96-.6,1.71-1.31,2.34-.12,.11-.25,.22-.39,.32-1.49,1.12-4.07,1.95-8.35,3.19-.69,.2-1.36,.4-2.04,.6-1.35,.4-2.7,.82-4.01,1.24-1.33,.43-2.63,.86-3.93,1.29-.65,.23-1.3,.45-1.94,.66-1.92,.67-3.81,1.37-5.67,2.07-.62,.24-1.24,.48-1.85,.72-1.22,.49-2.44,.98-3.62,1.48-.6,.25-1.2,.51-1.79,.76-4,1.74-7.82,3.59-11.49,5.58-1.22,.66-2.43,1.35-3.61,2.04-7.92,4.64-15.06,9.96-21.44,16.17-.86,.83-1.69,1.66-2.52,2.53-4.54,4.74-8.67,9.95-12.41,15.73-.68,1.04-1.34,2.12-2,3.21-.66,1.09-1.3,2.2-1.93,3.33-.32,.56-.63,1.13-.93,1.7-.92,1.72-1.81,3.48-2.68,5.29-.87,1.82-1.72,3.67-2.53,5.58-.8,1.9-1.58,3.84-2.33,5.83-.85,2.27-1.48,4.37-2.09,6.28-.09,.27-.18,.55-.26,.81-.06,.16-.1,.32-.16,.47-.12,.37-.24,.74-.38,1.1-.25,.7-.53,1.38-.84,2.04-.29,.65-.62,1.27-1,1.87-.21,.33-.42,.65-.66,.97-.43,.57-.91,1.12-1.46,1.64l-.03,.03c-.51,.49-1.08,.96-1.72,1.41,0,.05-.02,.12-.04,.17Z"/>
          <path class="cls-4" d="M335.01,664.31c-.93,1.72-1.82,3.48-2.68,5.29,.86-1.81,1.76-3.57,2.68-5.29Z"/>
          <path class="cls-4" d="M327.46,681.02c-.85,2.27-1.47,4.36-2.07,6.26,.61-1.91,1.24-4.01,2.09-6.28,.75-1.99,1.53-3.93,2.33-5.83-.82,1.9-1.6,3.85-2.35,5.85Z"/>
          <path class="cls-4" d="M318.69,697.76s.1,.03,.15,.04c.02-.05,.04-.12,.04-.17-.06,.05-.12,.09-.19,.14Z"/>
          <path class="cls-4" d="M317.62,697.12s.4,.29,.41,.28c0,0-.36-.31-.37-.34-.02-.03-.06,.02-.04,.06Z"/>
        </g>
      </g>
      <g>
        <path class="cls-4" d="M237.02,410.11c-6.9-.96-8.88,.32-15.04,.09-.13-.39-8.15-.4-5.51-2.64,4.81-4.08,13.88-1.6,21.18-.16,7.3,1.44,19.77,4.02,25.49,10.19-7.59-.26-19.22-6.51-26.12-7.47Z"/>
        <path class="cls-4" d="M135.65,513.64c24.13-10.65,29.18-43.19,1.93-59.16-8.67-5.08-5.88-5.88-6.32-14.26-.03-.63-.17-1.23,.43-1.6,7.86-4.99,7.07-7.61,17.74-1.95,33.56,17.78,43.42,75.03,2.22,89-13.11,4.44-8.98-5.63-11.97-3.88-.23,.13,.31,.69-.32,.78-8.22,1.17-11.39-5.53-3.72-8.91Z"/>
      </g>
      <path class="cls-4" d="M270.17,427.22c4.73,8.68-.97,13.73-10.25,10.32s-14.3-6.45-14.96-13.31c-.66-6.86,2.97-10.35,10.05-10,7.08,.35,10.43,4.31,15.16,12.99Z"/>
      <g>
        <path class="cls-6" d="M297.64,628.86c79.29-2.19,88.81,1.83,158.58-.43-.74-11.65,.41-23.17-.8-34.88-86.65,2.68-102.92-2.63-162,.25,1.02,11.75,3.74,23.28,4.21,35.06Z"/>
        <path class="cls-6" d="M292.64,566.61c53.92-1.86,107.87,.69,161.79-.37-.6-11.62-.49-23.29-.03-34.91-53.97,1.71-108.45,2.34-162.41-.08-.82,11.83-.08,23.53,.64,35.36Z"/>
      </g>
      <ellipse class="cls-2" cx="331.2" cy="280.11" rx="15.52" ry="22.71"/>
      <ellipse class="cls-2" cx="373.99" cy="280.11" rx="11.29" ry="14.53"/>
      <ellipse cx="335.33" cy="288.02" rx="8.57" ry="12.07"/>
      <ellipse cx="376.08" cy="286.8" rx="6.32" ry="7.85"/>
      <line class="cls-1" x1="313.8" y1="359.13" x2="379.63" y2="348.23"/>
      <path class="cls-7" d="M390.76,319.95s-9.92,9.88-33.06,12.46c-23.14,2.58-35.03-4.87-35.03-4.87,2.44,21.87,19.66,37.9,38.46,35.8,18.8-2.1,32.07-21.52,29.63-43.39Z"/>
    </g>
  </g>
  <g id="Layer_6" data-name="Layer 6">
    <g>
      <path class="cls-10" d="M688.24,604.24c-86.2,8.77-74.9,4.01-155.06-11.09-8.64-1.63-9.88-3.36-12.34-12.74-21.04-80.3-38.02-105.89-35.94-198.69,.24-10.84,2.32-12.3,13.27-10.75,101.63,14.39,142.93,14.6,244.3,14.67,10.92,0,12.89,3.56,12.02,12.91-7.41,80.04-26.83,122.09-53.33,194.29-3.1,8.43-3.63,10.46-12.92,11.41Z"/>
      <path class="cls-10" d="M744.04,374.19c-79.43-20.16-163.52-26.6-244.97-33.96-8.14-.74-9.73-5.7-10.05-11.96-.21-4.03,.29-10.74,1.66-14.6,2.13-5.99,3.84-10.05,12.41-9.61,85.66,4.45,167.35,18.26,251.38,34.28,8.4,1.6,9.85,6.82,10.19,13.7,.22,4.43-.42,12.44-3.69,15.45-5.08,4.68-9,8.71-16.94,6.7Z"/>
      <path class="cls-10" d="M681.83,333.32c.43,4.65,0,0,0,0,5.53-3.2,13,5.24,3.96-18.37-25.64-66.98-55.41-68.42-100.59-11.83-15.93,19.95-6.79,14.12-2.04,18.84-1.88,4.28,0,0,0,0,4.75,4.72,7.88,16.67,18.59-2.08,30.38-53.18,50.64-51.9,62.97,6.93,4.35,20.74,11.58,9.71,17.12,6.51Z"/>
      <path class="cls-9" d="M684.97,595.53c-82.11,8.04-71.34,3.64-147.73-10.46-8.23-1.52-9.42-3.12-11.77-11.83-20.13-74.5-36.34-98.26-34.45-184.32,.22-10.05,2.19-11.41,12.63-9.96,96.83,13.45,136.17,13.7,232.74,13.87,10.41,.02,12.28,3.31,11.47,11.98-6.97,74.23-25.43,113.21-50.6,180.14-2.94,7.82-3.45,9.7-12.3,10.56Z"/>
      <path class="cls-9" d="M735.8,379.39c-79.43-20.16-163.52-26.6-244.97-33.96-8.14-.74-9.73-5.7-10.05-11.96-.21-4.03,.29-10.74,1.66-14.6,2.13-5.99,3.84-10.05,12.41-9.61,85.66,4.45,167.35,18.26,251.38,34.28,8.4,1.6,9.85,6.82,10.19,13.7,.22,4.43-.42,12.44-3.69,15.45-5.08,4.68-9,8.71-16.94,6.7Z"/>
      <path class="cls-9" d="M673.58,338.52c.43,4.65,0,0,0,0,5.53-3.2,13,5.24,3.96-18.37-25.64-66.98-55.41-68.42-100.59-11.83-15.93,19.95-6.79,14.12-2.04,18.84-1.88,4.28,0,0,0,0,4.75,4.72,7.88,16.67,18.59-2.08,30.38-53.18,50.64-51.9,62.97,6.93,4.35,20.74,11.58,9.71,17.12,6.51Z"/>
    </g>
  </g>
</svg>