<?xml version="1.0" encoding="UTF-8"?><svg id="Layer_2" xmlns="http://www.w3.org/2000/svg" width="74.05" height="75.95" viewBox="0 0 74.05 75.95"><defs><style>.cls-1,.cls-2{fill:#edeae5;}.cls-3{fill:#fff;}.cls-2{stroke:#edeae5;stroke-miterlimit:10;}</style></defs><ellipse class="cls-3" cx="37.02" cy="37.97" rx="37.02" ry="37.97"/><g><g><path class="cls-1" d="m45.74,11.13c-2.77-.8-5.84-.49-8.39.85s-4.55,3.7-5.45,6.43c-1.5,4.52-.03,9.46-.58,14.19"/><path class="cls-1" d="m46.41,8.72c-5.92-1.61-12.21.79-15.5,5.98-3.5,5.52-1.45,11.85-2.08,17.9-.14,1.34,1.25,2.5,2.5,2.5,1.47,0,2.36-1.15,2.5-2.5.27-2.59,0-5.17-.09-7.76-.08-2.29-.05-4.74,1.01-6.79,1.97-3.79,6.21-5.63,10.33-4.51,3.11.85,4.44-3.98,1.33-4.82h0Z"/></g><path class="cls-1" d="m48.98,14.68c-4.59-.97-9.9.49-12.27,4.84-1.21,2.2-1.27,4.72-1.16,7.16.11,2.59.44,5.18.92,7.73.25,1.33,1.85,2.08,3.08,1.75,1.39-.38,2-1.74,1.75-3.08-.37-1.94-.6-3.77-.71-5.76-.06-.97-.1-1.95-.07-2.92,0-.24.02-.48.04-.72,0-.04.06-.44.02-.2.04-.24.1-.47.16-.7.01-.05.19-.61.07-.31.13-.33.33-.64.53-.94.22-.34-.37.37.13-.17.11-.12.22-.24.33-.36.15-.15.3-.28.45-.42.13-.11.13-.11-.02,0l.21-.14c.32-.2.64-.4.98-.56.15-.07.15-.07,0-.01l.26-.1c.22-.07.44-.14.67-.2s.45-.11.69-.15c.06-.01.43-.05.17-.03.47-.05.94-.05,1.41-.03.19,0,.38.02.56.04-.32-.04.46.1.45.1,1.28.27,2.76-.37,3.08-1.75.29-1.25-.38-2.79-1.75-3.08h0Z"/><rect class="cls-2" x="41.45" y="8.75" width="8.75" height="10.3" rx="1.86" ry="1.86"/><rect class="cls-2" x="30.1" y="17.42" width="10.06" height="49.19" rx="1.86" ry="1.86"/><rect class="cls-2" x="29.84" y="22.58" width="10.64" height="27.49" rx="1.86" ry="1.86" transform="translate(-1.16 71.48) rotate(-90)"/><rect class="cls-2" x="35.97" y="11.26" width="6.27" height="9.21" rx="1.86" ry="1.86" transform="translate(23.25 54.97) rotate(-90)"/></g></svg>