<svg xmlns="http://www.w3.org/2000/svg" width="256" height="256" viewBox="0 0 100 100"><rect width="100" height="100" rx="20" fill="#edeae5"></rect><path d="M23.36 18.14L23.36 18.14L23.36 19.94Q20.30 20.03 18.73 20.62Q17.15 21.20 16.61 22.77Q16.07 24.35 16.07 27.68L16.07 27.68L16.07 72.32Q16.07 75.56 16.61 77.18Q17.15 78.80 18.73 79.30Q20.30 79.79 23.36 79.79L23.36 79.79L29.93 79.79Q35.60 79.79 38.52 78.17Q41.45 76.55 42.76 72.86Q44.06 69.17 44.69 62.96L44.69 62.96L46.76 62.96Q46.49 65.75 46.49 70.34L46.49 70.34Q46.49 72.05 46.63 75.25Q46.76 78.44 47.12 81.86L47.12 81.86Q42.53 81.68 36.77 81.64Q31.01 81.59 26.51 81.59L26.51 81.59Q23.81 81.59 19.36 81.59Q14.90 81.59 9.86 81.64Q4.82 81.68 0.41 81.86L0.41 81.86L0.41 80.06Q3.47 79.88 5.05 79.34Q6.62 78.80 7.16 77.18Q7.70 75.56 7.70 72.32L7.70 72.32L7.70 27.68Q7.70 24.35 7.16 22.77Q6.62 21.20 5.05 20.62Q3.47 20.03 0.41 19.94L0.41 19.94L0.41 18.14Q2.30 18.23 5.36 18.32Q8.42 18.41 11.93 18.41L11.93 18.41Q15.08 18.41 18.19 18.32Q21.29 18.23 23.36 18.14ZM53.33 19.94L53.33 18.14Q55.22 18.23 58.28 18.32Q61.34 18.41 64.31 18.41L64.31 18.41Q68.54 18.41 72.41 18.32Q76.28 18.23 77.90 18.23L77.90 18.23Q88.79 18.23 94.19 23.18Q99.59 28.13 99.59 35.96L99.59 35.96Q99.59 39.20 98.51 42.76Q97.43 46.31 94.78 49.33Q92.12 52.34 87.53 54.23Q82.94 56.12 75.92 56.12L75.92 56.12L67.28 56.12L67.28 54.32L75.02 54.32Q81.41 54.32 84.78 51.89Q88.16 49.46 89.38 45.50Q90.59 41.54 90.59 36.95L90.59 36.95Q90.59 28.40 87.22 24.17Q83.84 19.94 75.65 19.94L75.65 19.94Q71.51 19.94 70.25 21.47Q68.99 23 68.99 27.68L68.99 27.68L68.99 72.32Q68.99 75.56 69.66 77.18Q70.34 78.80 72.32 79.34Q74.30 79.88 78.08 80.06L78.08 80.06L78.08 81.86Q75.74 81.68 72.14 81.64Q68.54 81.59 64.85 81.59L64.85 81.59Q61.34 81.59 58.28 81.64Q55.22 81.68 53.33 81.86L53.33 81.86L53.33 80.06Q56.39 79.88 57.96 79.34Q59.54 78.80 60.08 77.18Q60.62 75.56 60.62 72.32L60.62 72.32L60.62 27.68Q60.62 24.35 60.08 22.77Q59.54 21.20 57.96 20.62Q56.39 20.03 53.33 19.94L53.33 19.94Z" fill="#2b34d9"></path></svg>