<?xml version="1.0" encoding="UTF-8"?><svg id="Layer_2" xmlns="http://www.w3.org/2000/svg" width="74.05" height="79.05" viewBox="0 0 74.05 79.05"><defs><style>.cls-1{fill:#edeae5;}.cls-2{fill:#fff;}</style></defs><ellipse class="cls-2" cx="37.02" cy="37.97" rx="37.02" ry="37.97"/><g><path class="cls-1" d="m14.7,18.63v-7.74h7.08v7.74h-7.08Zm0,7.6h7.08v34.87h-7.08V26.23Z"/><path class="cls-1" d="m32.32,35c0-3.01,0-6.1-.07-8.77h6.93c.14,1.03.29,4.45.29,5.48,1.37-2.88,4.41-6.3,11.34-6.3s12.28,4.11,12.28,13.29v22.4h-7.08v-21.58c0-5-2.02-8.43-7.44-8.43-6.43,0-9.1,4.52-9.1,11.37v18.64h-7.15v-26.1Z"/></g><ellipse class="cls-1" cx="17.86" cy="14.87" rx="5.57" ry="5.17" transform="translate(-2.18 3.11) rotate(-9.37)"/></svg>